<?xml version="1.0" encoding="UTF-8"?>
<svg width="17px" height="17px" viewBox="0 0 17 17" version="1.1" xmlns="http://www.w3.org/2000/svg" xmlns:xlink="http://www.w3.org/1999/xlink">
    <!-- Generator: sketchtool 51.3 (57544) - http://www.bohemiancoding.com/sketch -->
    <title>A49952AA-7043-4DC5-98F4-7AE259AF353A</title>
    <desc>Created with sketchtool.</desc>
    <defs></defs>
    <g id="Pagina-de-Marcas-casuisticas" stroke="none" stroke-width="1" fill="none" fill-rule="evenodd">
        <g id="Desktop-HD-Listado-Marcas-Sin-logo" transform="translate(-1189.000000, -4.000000)" fill="#FFFFFF" fill-rule="nonzero">
            <g id="Header">
                <g id="Faja-ventajas">
                    <g>
                        <g id="devolucion" transform="translate(1189.000000, 4.000000)">
                            <path d="M16.5137453,1.37496 C16.1815634,1.30458 15.8547925,1.51353429 15.7836634,1.84139143 L15.336819,3.90038286 C13.9141382,1.50386857 11.3028237,0 8.44078653,0 C4.03319119,0 0.447368421,3.54066286 0.447368421,7.89285714 C0.447368421,8.22814571 0.722637146,8.5 1.06224674,8.5 C1.40180714,8.5 1.67712505,8.22814571 1.67712505,7.89285714 C1.67712505,4.21026857 4.711279,1.21428571 8.44078653,1.21428571 C10.8722122,1.21428571 13.0900045,2.49671714 14.2907388,4.53866 L12.2407837,4.10486857 C11.908651,4.03458571 11.5818309,4.24349143 11.510751,4.57134857 C11.4396219,4.89920571 11.65114,5.22201143 11.9831743,5.29224571 L15.5020491,6.03684571 C15.5618153,6.04952286 15.6225161,6.05316571 15.6823806,6.04821143 C15.7820893,6.03990571 15.8792893,6.00760571 15.9648803,5.95291429 C16.101826,5.86543714 16.1979438,5.72783429 16.232131,5.57041429 L16.986267,2.09580857 C17.0572977,1.768 16.8457796,1.44529143 16.5137453,1.37496 Z" id="Shape"></path>
                            <path d="M15.9102577,7.1582915 C15.5692742,7.16962786 15.3018845,7.45691503 15.3131535,7.79993929 C15.3730566,9.62509287 14.7229193,11.3643785 13.48235,12.6976436 C12.2418302,14.0307594 10.5594996,14.7982507 8.74525356,14.8585124 C8.6696332,14.8609985 8.59440824,14.8622415 8.51908444,14.8622415 C6.15182127,14.862142 3.97108832,13.6253355 2.73951442,11.6214354 L4.88688545,12.2006835 C5.21645181,12.2895347 5.55526067,12.0928886 5.6436327,11.7613002 C5.73200472,11.4297614 5.53647914,11.0889746 5.20691278,10.9999743 L1.71433961,10.0579627 C1.55608053,10.015352 1.38739277,10.0376269 1.24554282,10.1199647 C1.10359401,10.2023024 1.00004849,10.3380901 0.957592355,10.4972963 L0.0212343984,14.0108711 C-0.0671376273,14.3424098 0.128387951,14.6831966 0.45795432,14.7721473 C0.511580521,14.786616 0.565354997,14.793577 0.618338673,14.793577 C0.891066211,14.793577 1.14071224,14.6104053 1.21470157,14.3328137 L1.74102915,12.35805 C3.20519743,14.6773793 5.75380118,16.1053626 8.51878789,16.1052632 C8.60760474,16.1052632 8.69691584,16.1038213 8.78607867,16.100838 C10.9301876,16.0295383 12.9184099,15.1226297 14.3845058,13.5470748 C15.8506017,11.97152 16.6189638,9.91591022 16.5481377,7.75891957 C16.5369182,7.41594503 16.2511919,7.14610989 15.9102577,7.1582915 Z" id="Shape"></path>
                        </g>
                    </g>
                </g>
            </g>
        </g>
    </g>
</svg>