<?xml version="1.0" encoding="UTF-8"?>
<svg width="23px" height="23px" viewBox="0 0 23 23" version="1.1" xmlns="http://www.w3.org/2000/svg" xmlns:xlink="http://www.w3.org/1999/xlink">
    <!-- Generator: sketchtool 49.2 (51160) - http://www.bohemiancoding.com/sketch -->
    <title>D739AC1B-79D3-4A1F-87D1-58BA84621E99</title>
    <desc>Created with sketchtool.</desc>
    <defs></defs>
    <g id="Symbols" stroke="none" stroke-width="1" fill="none" fill-rule="evenodd">
        <g id="Header" transform="translate(-129.000000, -4.000000)" fill="#FFFFFF" fill-rule="nonzero">
            <g id="faja-up">
                <g id="phone-call-(3)" transform="translate(129.000000, 4.000000)">
                    <path d="M18.6741081,17.2759312 C18.4149926,16.9968238 18.1464547,16.7319082 17.882628,16.4764539 C17.7507146,16.3487267 17.6188013,16.2162689 17.4868879,16.0838111 L16.3373573,14.9295361 C15.8473934,14.43755 15.2726281,14.1773651 14.6837292,14.1773651 C14.0901191,14.1773651 13.5200649,14.43755 13.0301011,14.9295361 C12.9123213,15.047802 12.7898303,15.1660679 12.6720505,15.2843338 C12.3988014,15.55398 12.11613,15.8330875 11.8428809,16.1263868 C11.3576282,15.8898551 10.8629531,15.5634412 10.2881878,15.1093003 C9.53910837,14.4943177 8.89838637,13.8793351 8.32833223,13.2265074 C8.02210481,12.8717097 7.48502901,12.8338647 7.13168967,13.1460866 C6.77835033,13.4535779 6.7406608,13.9928703 7.05159942,14.347668 C7.68289904,15.0761858 8.39428891,15.7621279 9.22345856,16.4386088 C9.22816976,16.4386088 9.22816976,16.4433394 9.23288095,16.4433394 C10.0667618,17.1056284 10.7687293,17.5408468 11.5178087,17.8483381 C11.5366534,17.8577994 11.5554982,17.86253 11.574343,17.8672607 C11.7533682,17.9287589 12.290444,18.1085231 12.8180975,17.5834225 C12.8275198,17.5739613 12.8416534,17.5597694 12.8510758,17.5503081 C13.1714368,17.1860492 13.5106426,16.8549047 13.8686931,16.500107 C13.9911841,16.3818412 14.113675,16.2588446 14.236166,16.1358481 C14.3492346,16.0223129 14.5235487,15.8803938 14.6931516,15.8803938 C14.8627544,15.8803938 15.0323573,16.0175822 15.1501371,16.1358481 L16.2996678,17.2901231 C16.4362923,17.4273116 16.577628,17.5645 16.7095414,17.6969578 C16.9733681,17.9524121 17.21835,18.1984051 17.4539096,18.4491288 C17.4586208,18.4585901 17.4680432,18.4633207 17.4727544,18.4680513 C17.6517796,18.6478155 17.8449385,18.9316536 17.463332,19.3384882 L16.0264187,20.781332 C15.7201912,21.0888233 15.3809855,21.2496649 14.9522671,21.28751 C14.2220324,21.3490083 13.4446859,21.2070892 12.4317798,20.8286384 C10.7451733,20.2041945 9.17163546,19.2533368 7.47089543,17.8341462 C5.41681607,16.1074643 3.80087748,14.035446 2.66076921,11.674859 C2.25560677,10.818614 1.77977646,9.68326151 1.69968621,8.4769495 C1.65728549,7.80519928 1.83631075,7.32267448 2.26974034,6.91583984 C2.58539015,6.65092426 2.86335043,6.36235551 3.12717714,6.08797866 C3.29678003,5.90821451 3.45696053,5.74264228 3.62656341,5.58653131 L3.6312746,5.58180067 C3.96576918,5.26011747 4.24372946,5.25538684 4.55466808,5.56760877 L6.87728534,7.89981199 C6.88199653,7.90454263 6.88670773,7.90927326 6.89141892,7.9140039 C6.99035393,8.0086166 7.10813371,8.1552663 7.1128449,8.3161079 C7.1128449,8.48641077 6.98564274,8.65198301 6.88199653,8.76078762 L5.44037202,10.208362 C5.11058864,10.5395065 5.11058864,11.0787989 5.44037202,11.414674 C5.77015541,11.7458185 6.30723121,11.7458185 6.64172578,11.414674 L8.08335029,9.96709964 C8.56860299,9.4798442 8.81829612,8.90743732 8.81358493,8.301916 C8.80887374,7.71058658 8.55446941,7.15237161 8.0786391,6.69349998 L5.76073303,4.36602739 C4.79022764,3.39151651 3.4710941,3.38678588 2.46761037,4.35183549 C2.26974034,4.53633026 2.09071508,4.72555568 1.91168981,4.91005046 C1.66199668,5.1702354 1.42643712,5.41622844 1.17203279,5.62910703 C1.16261041,5.6385683 1.15318803,5.64802957 1.13905445,5.65749084 C0.314595992,6.40966186 -0.0622993048,7.39363401 0.00836856333,8.58575412 C0.107303579,10.0806349 0.65851295,11.414674 1.12963207,12.4081075 L1.12963207,12.4128381 C2.37809774,14.995765 4.14008325,17.2570087 6.37789907,19.1398016 C8.22939722,20.6819887 9.96311558,21.7274591 11.8334585,22.4228625 C12.5212924,22.6783168 13.5247761,23 14.6366173,23 C14.7826642,23 14.9334223,22.9952694 15.0841804,22.9810775 L15.0888916,22.9810775 C15.9133501,22.9101179 16.6294511,22.5742428 17.21835,21.9829134 L18.6599746,20.535339 C18.6646857,20.5306084 18.6693969,20.5258777 18.6741081,20.5211471 C19.6022128,19.5513668 19.5975016,18.2173277 18.6741081,17.2759312 Z" id="Shape"></path>
                    <path d="M18.1443387,12.2449501 C17.8294334,10.3976252 16.9558252,8.71270248 15.6200174,7.37288444 C14.2943678,6.04321653 12.6081008,5.17030477 10.754223,4.85565053 C10.2564695,4.76937437 9.7841116,5.10432888 9.6977666,5.60168558 C9.61142161,6.09904228 9.94664335,6.57102364 10.4443968,6.6572998 C11.9173409,6.90597815 13.2633069,7.60633758 14.3299216,8.67210193 C15.3965362,9.73786629 16.0974544,11.0827594 16.3463311,12.5545292 C16.4225179,13.0011352 16.8085308,13.3157895 17.2453349,13.3157895 C17.2961261,13.3157895 17.3469172,13.3107144 17.3977084,13.3005643 C17.8954619,13.2142881 18.2306837,12.7423068 18.1443387,12.2449501 Z" id="Shape"></path>
                    <path d="M22.9875718,11.1262761 C22.5168465,8.34781769 21.2025442,5.81643693 19.1938056,3.80718259 C17.1850669,1.79792825 14.6543358,0.483288524 11.8765905,0.0124423793 C11.4198471,-0.0668089519 10.986407,0.240872687 10.907176,0.697733302 C10.827945,1.15459392 11.1355477,1.58814532 11.5922911,1.66739665 C14.0251486,2.08230068 16.2436163,3.22911406 18.0053407,4.99129072 C19.7670651,6.75346738 20.9182448,8.97250465 21.3283817,11.4059867 C21.3982914,11.8162289 21.7525005,12.1052632 22.1533161,12.1052632 C22.1999226,12.1052632 22.246529,12.1006013 22.2931355,12.0912776 C22.7592002,12.0166881 23.0668028,11.5831367 22.9875718,11.1262761 Z" id="Shape"></path>
                </g>
            </g>
        </g>
    </g>
</svg>